HIERARCHY
ROOT Hips
{
 OFFSET 0.000000 0.000000 0.000000
 CHANNELS 6 Xposition Yposition Zposition Yrotation Xrotation Zrotation
 JOINT Chest
 {
  OFFSET 0.000000 9.585900 0.002600
  CHANNELS 3 Yrotation Xrotation Zrotation
  JOINT Chest2
  {
   OFFSET 0.000000 9.601200 -0.005300
   CHANNELS 3 Yrotation Xrotation Zrotation
   JOINT Chest3
   {
    OFFSET 0.000000 9.561800 0.000000
    CHANNELS 3 Yrotation Xrotation Zrotation
    JOINT Chest4
    {
     OFFSET 0.000000 9.552100 0.000000
     CHANNELS 3 Yrotation Xrotation Zrotation
     JOINT Neck
     {
      OFFSET 0.000000 14.453000 0.000000
      CHANNELS 3 Yrotation Xrotation Zrotation
      JOINT Head
      {
       OFFSET 0.000000 8.936500 -0.011300
       CHANNELS 3 Yrotation Xrotation Zrotation
       End Site
       {
        OFFSET 0.000000 17.073600 -0.006000
       }
      }
     }
     JOINT RightCollar
     {
      OFFSET -2.921100 9.558500 0.000000
      CHANNELS 3 Yrotation Xrotation Zrotation
      JOINT RightShoulder
      {
       OFFSET -13.519700 0.000000 0.000000
       CHANNELS 3 Yrotation Xrotation Zrotation
       JOINT RightElbow
       {
        OFFSET 0.000000 -29.696600 0.000000
        CHANNELS 3 Yrotation Xrotation Zrotation
        JOINT RightWrist
        {
         OFFSET 0.000000 -24.004700 0.000000
         CHANNELS 3 Yrotation Xrotation Zrotation
         End Site
         {
          OFFSET 0.000000 -17.728500 0.000000
         }
        }
       }
      }
     }
     JOINT LeftCollar
     {
      OFFSET 2.921100 9.558500 0.000000
      CHANNELS 3 Yrotation Xrotation Zrotation
      JOINT LeftShoulder
      {
       OFFSET 13.519700 0.000000 0.000000
       CHANNELS 3 Yrotation Xrotation Zrotation
       JOINT LeftElbow
       {
        OFFSET 0.000000 -29.696600 0.000000
        CHANNELS 3 Yrotation Xrotation Zrotation
        JOINT LeftWrist
        {
         OFFSET 0.000000 -24.004700 0.000000
         CHANNELS 3 Yrotation Xrotation Zrotation
         End Site
         {
          OFFSET 0.000000 -17.728500 0.000000
         }
        }
       }
      }
     }
    }
   }
  }
 }
 JOINT RightHip
 {
  OFFSET -7.771700 -0.012900 -0.001300
  CHANNELS 3 Yrotation Xrotation Zrotation
  JOINT RightKnee
  {
   OFFSET 0.000000 -40.869800 0.001200
   CHANNELS 3 Yrotation Xrotation Zrotation
   JOINT RightAnkle
   {
    OFFSET 0.000000 -39.717900 0.002100
    CHANNELS 3 Yrotation Xrotation Zrotation
    JOINT RightToe
    {
     OFFSET 0.000000 -4.965400 11.033500
     CHANNELS 3 Yrotation Xrotation Zrotation
     End Site
     {
      OFFSET 0.000000 -1.423100 5.872300
     }
    }
   }
  }
 }
 JOINT LeftHip
 {
  OFFSET 7.771700 -0.012900 -0.001300
  CHANNELS 3 Yrotation Xrotation Zrotation
  JOINT LeftKnee
  {
   OFFSET 0.000000 -40.869800 0.001200
   CHANNELS 3 Yrotation Xrotation Zrotation
   JOINT LeftAnkle
   {
    OFFSET 0.000000 -39.717900 0.002100
    CHANNELS 3 Yrotation Xrotation Zrotation
    JOINT LeftToe
    {
     OFFSET 0.000000 -4.965400 11.033500
     CHANNELS 3 Yrotation Xrotation Zrotation
     End Site
     {
      OFFSET 0.000000 -1.423100 5.872300
     }
    }
   }
  }
 }
}
MOTION
Frames: 11
Frame Time: 0.008333
0.000000 85.388000 0.000000 0.000000 -5.767877 0.000000 0.000000 11.653817 0.000000 0.000000 -5.885947 0.000000 0.000000 -0.000000 0.000000 0.000000 -0.000000 0.000000 0.000000 12.528835 0.000000 0.000000 0.711642 0.000000 0.000000 -0.000000 0.000000 0.000000 0.000000 -90.000000 0.000000 -2.309062 0.000000 0.000000 2.309062 0.000000 0.000000 -0.000000 0.000000 0.000000 -0.000000 90.000000 0.000000 -2.309062 0.000000 0.000000 2.309062 0.000000 0.000000 8.520406 0.000000 0.000000 1.905762 0.000000 -0.000000 -4.658285 0.000000 0.000000 -0.000000 0.000000 0.000000 8.520406 0.000000 0.000000 1.905762 0.000000 -0.000000 -4.658285 0.000000 0.000000 -0.000000 0.000000
-33.581541 57.719490 12.163179 175.925067 -42.854226 -0.515161 3.791684 19.978844 5.832601 1.841588 11.463492 3.107226 2.496201 14.306070 4.071934 1.864644 11.458556 3.147939 -0.213156 13.381588 -1.205107 0.134780 -10.915074 -2.163537 -1.929775 2.755350 -0.815604 -1.547460 -9.253450 -11.602464 -106.826035 -74.064360 145.745626 24.554545 6.721860 -8.605578 -8.346176 -2.565142 5.458461 58.038154 -38.736775 5.017391 -178.940113 -35.058629 -172.682744 -9.306834 -22.688737 26.080169 4.293131 -29.339341 -5.616256 -36.050846 75.011949 -40.110802 6.452627 -14.916840 11.039367 -0.045949 -0.080221 0.061874 -3.777684 -26.013030 3.932137 89.343311 82.752163 90.364758 1.468007 -22.695180 -18.043273 0.020229 0.017112 0.003089
-33.591457 57.717054 12.162326 175.936259 -42.824415 -0.489976 3.785368 19.958099 5.823186 1.865591 11.457540 3.148324 2.489824 14.292892 4.090069 1.868052 11.449371 3.164909 -0.187980 13.453323 -1.195325 0.119652 -10.805963 -2.184679 -1.932227 2.776672 -0.808302 -1.458985 -9.209780 -11.665811 -106.108412 -74.185605 145.041853 24.530382 6.728374 -8.605912 -8.329013 -2.533262 5.452235 57.851806 -38.473656 5.107007 -179.219741 -35.466113 -172.711242 -9.081429 -22.135369 26.247953 4.322112 -29.363969 -5.648765 -36.021272 75.023784 -40.120819 6.436728 -14.929368 11.076480 -0.073713 -0.072036 0.053079 -3.754241 -26.048857 3.874486 89.373527 82.747829 90.419716 1.474044 -22.698169 -18.053468 0.026524 0.015968 0.007213
-33.599224 57.714703 12.161967 175.956922 -42.796677 -0.487034 3.797367 19.944605 5.892854 1.850428 11.444310 3.127073 2.466712 14.288127 4.072972 1.892539 11.445317 3.214295 -0.179546 13.520354 -1.199529 0.136079 -10.681253 -2.195113 -1.921344 2.786040 -0.794043 -1.351529 -9.187848 -11.727321 -105.212525 -74.311962 144.152911 24.531737 6.744330 -8.596234 -8.276101 -2.448571 5.463796 57.492887 -38.185012 5.207974 -179.747838 -36.160647 -172.625144 -8.805150 -21.499328 26.293245 4.388763 -29.375669 -5.674130 -36.111598 75.009192 -40.182254 6.403599 -14.941338 11.099610 -0.059230 -0.054257 0.046101 -3.724045 -26.084095 3.820475 89.369250 82.728706 90.454468 1.482109 -22.700574 -18.058657 0.021167 0.021284 0.006648
-33.602191 57.715190 12.159685 175.967563 -42.797573 -0.505847 3.803437 19.950320 5.944219 1.854851 11.437989 3.145163 2.473413 14.296888 4.110028 1.881273 11.449151 3.213701 -0.165424 13.587002 -1.200941 0.162171 -10.557242 -2.202597 -1.932348 2.773427 -0.821413 -1.206651 -9.183746 -11.739759 -104.160787 -74.443997 143.105565 24.552513 6.767122 -8.580745 -8.253619 -2.372142 5.444174 56.989518 -37.895134 5.404888 179.442195 -37.104466 -172.396794 -8.469105 -20.776215 26.216921 4.444460 -29.356431 -5.654429 -36.213941 74.984222 -40.258054 6.390597 -14.955042 11.099033 -0.044700 -0.039021 0.058531 -3.721557 -26.084107 3.820182 89.359682 82.733194 90.464955 1.487330 -22.703420 -18.062637 0.022700 0.023144 0.008015
-33.604039 57.715458 12.158784 175.992733 -42.802052 -0.540678 3.797750 19.961478 5.998766 1.860430 11.437535 3.164287 2.476255 14.318539 4.143564 1.871565 11.455895 3.212112 -0.145087 13.650911 -1.197663 0.198193 -10.438355 -2.203663 -1.884532 2.745295 -0.765828 -1.093498 -9.208240 -11.823070 -102.975304 -74.587835 141.922616 24.581605 6.786808 -8.564950 -8.246633 -2.309824 5.416569 56.365935 -37.592414 5.665910 178.346577 -38.236306 -172.005441 -8.051217 -19.947884 26.024462 4.544635 -29.327108 -5.613630 -36.427234 74.942669 -40.433060 6.341581 -14.970284 11.095862 -0.036262 -0.022782 0.107085 -3.741369 -26.078676 3.833748 89.377525 82.743136 90.495754 1.502368 -22.697492 -18.068126 0.015322 0.014829 0.006316
-33.609475 57.716645 12.157862 175.992640 -42.821538 -0.534479 3.797933 19.989840 6.025432 1.865349 11.446671 3.180607 2.470555 14.342447 4.159155 1.871209 11.470683 3.225669 -0.118171 13.713584 -1.189362 0.244559 -10.321584 -2.197708 -1.830273 2.700996 -0.699827 -0.971635 -9.254620 -11.911195 -101.664463 -74.741301 140.609276 24.616274 6.793615 -8.549018 -8.238719 -2.239436 5.395303 55.656950 -37.279124 5.942058 176.961085 -39.502192 -171.426915 -7.536460 -19.032659 25.728569 4.635600 -29.290691 -5.597170 -36.559412 74.917223 -40.557917 6.308268 -14.976904 11.127283 -0.040651 -0.017759 0.111643 -3.731520 -26.059619 3.820227 89.338054 82.745937 90.464247 1.500592 -22.695075 -18.068869 0.018042 0.014118 0.007645
-33.619297 57.715918 12.159943 175.985118 -42.831936 -0.495155 3.790954 20.006573 6.004941 1.871661 11.466539 3.210771 2.457563 14.368229 4.175321 1.868128 11.490388 3.237896 -0.085649 13.778323 -1.176981 0.299844 -10.200863 -2.186214 -1.778126 2.643246 -0.660452 -0.833369 -9.313926 -11.976917 -100.254006 -74.894002 139.191196 24.664053 6.794836 -8.529967 -8.223397 -2.154644 5.378388 54.893804 -36.959334 6.209412 175.281084 -40.858878 -170.640439 -6.926621 -18.060411 25.351309 4.722356 -29.266503 -5.602179 -36.569205 74.901495 -40.640646 6.279952 -14.978867 11.226003 -0.067021 -0.019878 0.095601 -3.701168 -26.054055 3.774524 89.296408 82.746922 90.430167 1.481359 -22.702898 -18.069351 0.040535 0.020757 0.017654
-33.626578 57.716084 12.162515 175.979473 -42.857680 -0.469033 3.785533 20.037533 5.997103 1.855857 11.514211 3.283571 2.444427 14.373912 4.142164 1.861982 11.513895 3.248842 -0.048690 13.848518 -1.160866 0.362054 -10.070088 -2.169399 -1.706570 2.580583 -0.624882 -0.698347 -9.385929 -12.046005 -98.774050 -75.036309 137.703907 24.736870 6.809449 -8.506430 -8.199015 -2.056108 5.364538 54.110195 -36.635420 6.449852 173.281213 -42.292749 -169.626165 -6.267126 -17.093285 24.952474 4.767256 -29.234011 -5.608008 -36.567881 74.891948 -40.676261 6.265279 -14.978409 11.260142 -0.075114 -0.017246 0.065973 -3.685972 -26.029888 3.745422 89.244584 82.749028 90.378356 1.478847 -22.696552 -18.069106 0.046187 0.018656 0.020199
-33.631749 57.717069 12.165540 175.970208 -42.897776 -0.449757 3.777783 20.082203 6.016998 1.838658 11.533837 3.289896 2.447211 14.382160 4.125231 1.843930 11.562234 3.291651 -0.006379 13.927798 -1.139524 0.432044 -9.922456 -2.144582 -1.614122 2.516822 -0.589832 -0.574579 -9.467258 -12.118251 -97.262651 -75.170527 136.188230 24.841029 6.841338 -8.479320 -8.162626 -1.945044 5.355142 53.332539 -36.311823 6.653568 170.930453 -43.784921 -168.357784 -5.615266 -16.182448 24.590232 4.807143 -29.189312 -5.606980 -36.605661 74.880725 -40.724074 6.251782 -14.977454 11.270827 -0.072054 -0.015554 0.060529 -3.675989 -25.988116 3.730108 89.187696 82.751368 90.316230 1.471920 -22.693545 -18.065983 0.049211 0.018655 0.021797
-33.630224 57.719300 12.168770 175.962642 -42.955568 -0.468157 3.772538 20.137519 6.070574 1.824046 11.550578 3.295601 2.426217 14.428766 4.149845 1.834251 11.576738 3.282579 0.039947 14.019890 -1.111209 0.506450 -9.751030 -2.107884 -1.506537 2.455195 -0.550401 -0.462798 -9.549930 -12.198588 -95.812842 -75.307181 134.736719 24.970722 6.894029 -8.449567 -8.111522 -1.820710 5.348115 52.578695 -35.997776 6.814092 168.215333 -45.295479 -166.807706 -5.006270 -15.324828 24.283345 4.882395 -29.117894 -5.528813 -36.857897 74.824610 -40.951271 6.182792 -14.973175 11.297784 -0.013235 -0.006280 0.063838 -3.688928 -25.925085 3.760025 89.153152 82.754998 90.272646 1.469728 -22.695034 -18.065921 0.048062 0.021799 0.022686
